<svg width="512" height="512" viewBox="0 0 512 512" fill="none" xmlns="http://www.w3.org/2000/svg">
<rect width="512" height="512" fill="#F44437"/>
<path fill-rule="evenodd" clip-rule="evenodd" d="M154.734 361.369C136.279 357.918 126.559 354.755 117.402 349.148C100.919 339.228 94.4387 329.452 88.381 305.156C85.5635 293.798 85 287.76 85 271.37C85 253.974 85.4226 250.093 88.6628 239.597C93.7343 223.208 99.3694 212.857 108.667 202.937C121.346 189.423 140.083 180.078 160.791 176.771C166.286 175.908 177.133 172.602 185.022 169.439C203.336 162.25 222.354 158.225 250.53 155.781C262.927 154.631 279.691 152.762 287.862 151.324C304.626 148.593 347.03 148.161 363.231 150.605C380.84 153.193 407.325 169.439 415.637 182.809C426.202 199.63 429.443 216.163 427.189 240.604C424.512 268.351 417.045 285.747 398.45 307.887C376.05 334.484 352.383 345.554 309.979 349.148C300.541 350.011 291.666 351.017 290.398 351.449C287.862 352.168 273.915 353.605 232.92 356.912C219.396 358.062 203.618 360.075 197.983 361.225C185.867 363.956 168.54 363.956 154.734 361.369Z" fill="white"/>
<path d="M276.383 331.788C274.894 331.518 270.291 330.164 266.23 328.675C262.168 327.321 257.16 325.832 255.129 325.426C250.255 324.343 247.819 319.875 249.849 315.679C252.421 309.993 256.889 309.316 268.937 313.242C274.894 315.137 280.444 316.22 281.121 315.814C281.798 315.408 284.37 311.347 286.671 306.879C291.274 298.351 294.929 296.049 299.803 298.757C305.759 302.006 304.541 308.639 295.471 322.312C289.379 331.518 285.047 333.684 276.383 331.788Z" fill="#020202"/>
<path d="M172.861 308.354C165.416 306.865 149.441 297.524 145.786 292.515C144.297 290.349 140.913 283.58 138.07 277.353C133.738 267.2 133.196 265.169 133.738 256.911C134.008 251.767 133.873 247.57 133.467 247.57C133.196 247.57 128.864 251.902 123.991 257.046C116.274 265.304 114.514 266.523 110.318 266.523C101.383 266.523 98.4046 258.942 103.684 249.465C112.619 233.762 122.366 224.556 142.131 213.32C157.834 204.385 164.603 202.625 180.848 202.761C199.124 203.032 208.194 205.468 214.963 212.372C217.806 215.215 220.107 218.735 220.107 220.495C220.107 222.119 222.003 225.639 224.304 228.347C234.999 240.395 237.977 256.234 231.75 267.876C229.99 271.261 227.824 276.27 227.011 278.977C224.845 285.475 214.828 296.711 206.976 301.314C201.561 304.428 183.827 310.114 180.307 309.707C179.495 309.572 176.11 309.031 172.861 308.354ZM202.102 257.182C214.692 248.112 215.234 227.67 203.185 219.683C195.875 214.809 185.451 220.495 180.848 232.002C176.11 243.509 178.682 252.714 188.023 258.4C193.844 261.92 195.74 261.785 202.102 257.182Z" fill="#020202"/>
<path d="M202.102 257.182C214.692 248.112 215.234 227.67 203.185 219.683C195.875 214.809 185.451 220.495 180.848 232.002C176.11 243.509 178.682 252.714 188.023 258.4C193.844 261.92 195.74 261.785 202.102 257.182Z" fill="white"/>
<path fill-rule="evenodd" clip-rule="evenodd" d="M307.559 185.839C316.493 182.049 334.228 183.538 372.539 190.848C376.465 191.525 383.098 194.368 387.43 196.94C391.898 199.648 397.448 202.625 399.885 203.573C400.614 203.882 401.252 204.199 401.798 204.517C406.318 206.276 411.904 208.965 412.611 209.936C414.371 212.914 413.83 216.298 410.987 219.141C409.755 220.374 408.799 221.118 407.719 221.415C407.214 221.759 406.286 221.669 404.623 221.308C402.457 220.766 398.396 220.225 395.418 219.954C392.44 219.819 387.43 218.329 384.317 216.704C381.203 215.08 378.36 213.726 377.954 213.726C377.549 213.728 378.225 216.706 379.308 220.36C381.609 228.347 380.661 234.439 373.893 254.068C368.342 270.448 367.801 271.261 357.919 279.383C353.722 282.767 349.932 286.423 349.661 287.371C348.849 289.401 349.119 289.401 328.407 288.048C313.245 287.1 309.319 286.152 300.384 281.685C293.751 278.3 290.773 274.239 286.035 263.003C279.131 246.758 278.86 227.399 285.358 209.936C288.472 201.272 299.842 189.088 307.559 185.839ZM320.961 201.001C315.411 197.346 309.454 198.293 303.497 203.573C300.519 206.145 297.541 208.311 297 208.311C295.24 208.311 291.856 217.11 291.856 221.577C291.856 224.15 293.751 227.399 297.542 231.731C303.092 237.822 303.633 238.093 310.537 238.093C316.629 238.093 318.389 237.552 321.502 234.303C324.616 231.19 325.429 229.024 326.105 221.037C327.188 209.936 325.699 204.115 320.961 201.001Z" fill="#020202"/>
<path d="M320.961 201.001C315.411 197.346 309.454 198.293 303.497 203.573C300.519 206.145 297.541 208.311 297 208.311C295.24 208.311 291.856 217.11 291.856 221.577C291.856 224.15 293.751 227.399 297.542 231.731C303.092 237.822 303.633 238.093 310.537 238.093C316.629 238.093 318.389 237.552 321.502 234.303C324.616 231.19 325.429 229.024 326.105 221.037C327.188 209.936 325.699 204.115 320.961 201.001Z" fill="white"/>
</svg>
